# Exact static export of the supplied cat editor Blockbench model.
mtllib cat_editor.mtl
usemtl editor
o editor_008cfb2a-a2e3-3f6c-d7eb-5fb34b3f153e
v 0.1875 0.1875 0.1875
v 0.8125 0.1875 0.1875
v 0.8125 0 0.1875
v 0.1875 0 0.1875
vt 0.15625 0.6875
vt 0 0.6875
vt 0 0.640625
vt 0.15625 0.640625
f 1/1 2/2 3/3 4/4
v 0.8125 0.1875 0.1875
v 0.8125 0.1875 0.8125
v 0.8125 0 0.8125
v 0.8125 0 0.1875
vt 0.3125 0.6875
vt 0.15625 0.6875
vt 0.15625 0.640625
vt 0.3125 0.640625
f 5/5 6/6 7/7 8/8
v 0.8125 0 0.8125
v 0.8125 0.1875 0.8125
v 0.1875 0.1875 0.8125
v 0.1875 0 0.8125
vt 0.46875 0.640625
vt 0.46875 0.6875
vt 0.3125 0.6875
vt 0.3125 0.640625
f 9/9 10/10 11/11 12/12
v 0.1875 0 0.8125
v 0.1875 0.1875 0.8125
v 0.1875 0.1875 0.1875
v 0.1875 0 0.1875
vt 0.484375 0.953125
vt 0.484375 1
vt 0.328125 1
vt 0.328125 0.953125
f 13/13 14/14 15/15 16/16
v 0.1875 0.1875 0.8125
v 0.8125 0.1875 0.8125
v 0.8125 0.1875 0.1875
v 0.1875 0.1875 0.1875
vt 0.328125 1
vt 0.171875 1
vt 0.171875 0.84375
vt 0.328125 0.84375
f 17/17 18/18 19/19 20/20
v 0.8125 0 0.1875
v 0.8125 0 0.8125
v 0.1875 0 0.8125
v 0.1875 0 0.1875
vt 0.171875 0.6875
vt 0.171875 0.84375
vt 0.328125 0.84375
vt 0.328125 0.6875
f 21/21 22/22 23/23 24/24
o editor_b7239b89-511c-22b0-0a4b-75e554778a3f
v 0.34375 0.375 0.34375
v 0.65625 0.375 0.34375
v 0.65625 0.1875 0.34375
v 0.34375 0.1875 0.34375
vt 0.390625 0.59375
vt 0.3125 0.59375
vt 0.3125 0.546875
vt 0.390625 0.546875
f 25/25 26/26 27/27 28/28
v 0.65625 0.375 0.34375
v 0.65625 0.375 0.59375
v 0.65625 0.1875 0.59375
v 0.65625 0.1875 0.34375
vt 0.390625 0.59375
vt 0.3125 0.59375
vt 0.3125 0.546875
vt 0.390625 0.546875
f 29/29 30/30 31/31 32/32
v 0.65625 0.1875 0.59375
v 0.65625 0.375 0.59375
v 0.34375 0.375 0.59375
v 0.34375 0.1875 0.59375
vt 0.390625 0.546875
vt 0.390625 0.59375
vt 0.3125 0.59375
vt 0.3125 0.546875
f 33/33 34/34 35/35 36/36
v 0.34375 0.1875 0.59375
v 0.34375 0.375 0.59375
v 0.34375 0.375 0.34375
v 0.34375 0.1875 0.34375
vt 0.390625 0.546875
vt 0.390625 0.59375
vt 0.3125 0.59375
vt 0.3125 0.546875
f 37/37 38/38 39/39 40/40
v 0.34375 0.375 0.59375
v 0.65625 0.375 0.59375
v 0.65625 0.375 0.34375
v 0.34375 0.375 0.34375
vt 0.078125 0.640625
vt 0 0.640625
vt 0 0.5625
vt 0.078125 0.5625
f 41/41 42/42 43/43 44/44
v 0.65625 0.1875 0.34375
v 0.65625 0.1875 0.59375
v 0.34375 0.1875 0.59375
v 0.34375 0.1875 0.34375
vt 0.078125 0.5625
vt 0.078125 0.640625
vt 0.15625 0.640625
vt 0.15625 0.5625
f 45/45 46/46 47/47 48/48
o editor_52aac1fa-964a-436d-4d61-5f29f8cf60ae
v 0.15625 0.2698762178 0.225682044
v 0.84375 0.2698762178 0.225682044
v 0.84375 0.225682044 0.2698762178
v 0.15625 0.225682044 0.2698762178
vt 0.5 0.703125
vt 0.328125 0.703125
vt 0.328125 0.6875
vt 0.5 0.6875
f 49/49 50/50 51/51 52/52
v 0.84375 0.2698762178 0.225682044
v 0.84375 0.711817956 0.6676237822
v 0.84375 0.6676237822 0.711817956
v 0.84375 0.225682044 0.2698762178
vt 0.25 0.53125
vt 0.09375 0.53125
vt 0.09375 0.515625
vt 0.25 0.515625
f 53/53 54/54 55/55 56/56
v 0.84375 0.6676237822 0.711817956
v 0.84375 0.711817956 0.6676237822
v 0.15625 0.711817956 0.6676237822
v 0.15625 0.6676237822 0.711817956
vt 0.484375 0.53125
vt 0.484375 0.546875
vt 0.3125 0.546875
vt 0.3125 0.53125
f 57/57 58/58 59/59 60/60
v 0.15625 0.6676237822 0.711817956
v 0.15625 0.711817956 0.6676237822
v 0.15625 0.2698762178 0.225682044
v 0.15625 0.225682044 0.2698762178
vt 0.40625 0.515625
vt 0.40625 0.53125
vt 0.25 0.53125
vt 0.25 0.515625
f 61/61 62/62 63/63 64/64
v 0.15625 0.711817956 0.6676237822
v 0.84375 0.711817956 0.6676237822
v 0.84375 0.2698762178 0.225682044
v 0.15625 0.2698762178 0.225682044
vt 0.171875 1
vt 0 1
vt 0 0.84375
vt 0.171875 0.84375
f 65/65 66/66 67/67 68/68
v 0.84375 0.225682044 0.2698762178
v 0.84375 0.6676237822 0.711817956
v 0.15625 0.6676237822 0.711817956
v 0.15625 0.225682044 0.2698762178
vt 0 0.6875
vt 0 0.84375
vt 0.171875 0.84375
vt 0.171875 0.6875
f 69/69 70/70 71/71 72/72
o editor_ec80aa4c-c4cf-f269-268c-95176456c485
v 0.34375 0.5625 0.53125
v 0.65625 0.5625 0.53125
v 0.65625 0.375 0.53125
v 0.34375 0.375 0.53125
vt 0.234375 0.578125
vt 0.15625 0.578125
vt 0.15625 0.53125
vt 0.234375 0.53125
f 73/73 74/74 75/75 76/76
v 0.65625 0.5625 0.53125
v 0.65625 0.5625 0.59375
v 0.65625 0.375 0.59375
v 0.65625 0.375 0.53125
vt 0.3125 0.578125
vt 0.296875 0.578125
vt 0.296875 0.53125
vt 0.3125 0.53125
f 77/77 78/78 79/79 80/80
v 0.65625 0.375 0.59375
v 0.65625 0.5625 0.59375
v 0.34375 0.5625 0.59375
v 0.34375 0.375 0.59375
vt 0.3125 0.53125
vt 0.3125 0.578125
vt 0.234375 0.578125
vt 0.234375 0.53125
f 81/81 82/82 83/83 84/84
v 0.34375 0.375 0.59375
v 0.34375 0.5625 0.59375
v 0.34375 0.5625 0.53125
v 0.34375 0.375 0.53125
vt 0.3125 0.53125
vt 0.3125 0.578125
vt 0.296875 0.578125
vt 0.296875 0.53125
f 85/85 86/86 87/87 88/88
v 0.34375 0.5625 0.59375
v 0.65625 0.5625 0.59375
v 0.65625 0.5625 0.53125
v 0.34375 0.5625 0.53125
vt 0.171875 0.515625
vt 0.09375 0.515625
vt 0.09375 0.5
vt 0.171875 0.5
f 89/89 90/90 91/91 92/92
v 0.65625 0.375 0.53125
v 0.65625 0.375 0.59375
v 0.34375 0.375 0.59375
v 0.34375 0.375 0.53125
vt 0.171875 0.5
vt 0.171875 0.515625
vt 0.25 0.515625
vt 0.25 0.5
f 93/93 94/94 95/95 96/96
o editor_018d4194-9d79-85c1-44dd-42b069f98be0
v 0.34375 0.5 0.46875
v 0.65625 0.5 0.46875
v 0.65625 0.375 0.46875
v 0.34375 0.375 0.46875
vt 0.546875 0.6875
vt 0.46875 0.6875
vt 0.46875 0.65625
vt 0.546875 0.65625
f 97/97 98/98 99/99 100/100
v 0.65625 0.5 0.46875
v 0.65625 0.5 0.53125
v 0.65625 0.375 0.53125
v 0.65625 0.375 0.46875
vt 0.296875 0.5625
vt 0.28125 0.5625
vt 0.28125 0.53125
vt 0.296875 0.53125
f 101/101 102/102 103/103 104/104
v 0.65625 0.375 0.53125
v 0.65625 0.5 0.53125
v 0.34375 0.5 0.53125
v 0.34375 0.375 0.53125
vt 0.546875 0.625
vt 0.546875 0.65625
vt 0.46875 0.65625
vt 0.46875 0.625
f 105/105 106/106 107/107 108/108
v 0.34375 0.375 0.53125
v 0.34375 0.5 0.53125
v 0.34375 0.5 0.46875
v 0.34375 0.375 0.46875
vt 0.296875 0.53125
vt 0.296875 0.5625
vt 0.28125 0.5625
vt 0.28125 0.53125
f 109/109 110/110 111/111 112/112
v 0.34375 0.5 0.53125
v 0.65625 0.5 0.53125
v 0.65625 0.5 0.46875
v 0.34375 0.5 0.46875
vt 0.328125 0.515625
vt 0.25 0.515625
vt 0.25 0.5
vt 0.328125 0.5
f 113/113 114/114 115/115 116/116
v 0.65625 0.375 0.46875
v 0.65625 0.375 0.53125
v 0.34375 0.375 0.53125
v 0.34375 0.375 0.46875
vt 0.328125 0.5
vt 0.328125 0.515625
vt 0.40625 0.515625
vt 0.40625 0.5
f 117/117 118/118 119/119 120/120
o editor_af8ded0d-bc5b-8e62-9a12-d0b4cd53655e
v 0.34375 0.4375 0.40625
v 0.65625 0.4375 0.40625
v 0.65625 0.375 0.40625
v 0.34375 0.375 0.40625
vt 0.5625 0.546875
vt 0.484375 0.546875
vt 0.484375 0.53125
vt 0.5625 0.53125
f 121/121 122/122 123/123 124/124
v 0.65625 0.4375 0.40625
v 0.65625 0.4375 0.46875
v 0.65625 0.375 0.46875
v 0.65625 0.375 0.40625
vt 0.28125 0.546875
vt 0.265625 0.546875
vt 0.265625 0.53125
vt 0.28125 0.53125
f 125/125 126/126 127/127 128/128
v 0.65625 0.375 0.46875
v 0.65625 0.4375 0.46875
v 0.34375 0.4375 0.46875
v 0.34375 0.375 0.46875
vt 0.078125 0.484375
vt 0.078125 0.5
vt 0 0.5
vt 0 0.484375
f 129/129 130/130 131/131 132/132
v 0.34375 0.375 0.46875
v 0.34375 0.4375 0.46875
v 0.34375 0.4375 0.40625
v 0.34375 0.375 0.40625
vt 0.28125 0.53125
vt 0.28125 0.546875
vt 0.265625 0.546875
vt 0.265625 0.53125
f 133/133 134/134 135/135 136/136
v 0.34375 0.4375 0.46875
v 0.65625 0.4375 0.46875
v 0.65625 0.4375 0.40625
v 0.34375 0.4375 0.40625
vt 0.15625 0.5
vt 0.078125 0.5
vt 0.078125 0.484375
vt 0.15625 0.484375
f 137/137 138/138 139/139 140/140
v 0.65625 0.375 0.40625
v 0.65625 0.375 0.46875
v 0.34375 0.375 0.46875
v 0.34375 0.375 0.40625
vt 0.15625 0.484375
vt 0.15625 0.5
vt 0.234375 0.5
vt 0.234375 0.484375
f 141/141 142/142 143/143 144/144
o editor_97b39e95-02e6-b818-cf3c-6103c023faf0
v 0.1281407832 0.13125 0.7834708691
v 0.7910533906 0.13125 0.1205582618
v 0.7910533906 0.00625 0.1205582618
v 0.1281407832 0.00625 0.7834708691
vt 0.5625 0.953125
vt 0.328125 0.953125
vt 0.328125 0.921875
vt 0.5625 0.921875
f 145/145 146/146 147/147 148/148
v 0.7910533906 0.13125 0.1205582618
v 0.8794417382 0.13125 0.2089466094
v 0.8794417382 0.00625 0.2089466094
v 0.7910533906 0.00625 0.1205582618
vt 0.15625 0.5625
vt 0.125 0.5625
vt 0.125 0.53125
vt 0.15625 0.53125
f 149/149 150/150 151/151 152/152
v 0.8794417382 0.00625 0.2089466094
v 0.8794417382 0.13125 0.2089466094
v 0.2165291309 0.13125 0.8718592168
v 0.2165291309 0.00625 0.8718592168
vt 0.5625 0.890625
vt 0.5625 0.921875
vt 0.328125 0.921875
vt 0.328125 0.890625
f 153/153 154/154 155/155 156/156
v 0.2165291309 0.00625 0.8718592168
v 0.2165291309 0.13125 0.8718592168
v 0.1281407832 0.13125 0.7834708691
v 0.1281407832 0.00625 0.7834708691
vt 0.125 0.53125
vt 0.125 0.5625
vt 0.15625 0.5625
vt 0.15625 0.53125
f 157/157 158/158 159/159 160/160
v 0.2165291309 0.13125 0.8718592168
v 0.8794417382 0.13125 0.2089466094
v 0.7910533906 0.13125 0.1205582618
v 0.1281407832 0.13125 0.7834708691
vt 0.5625 0.890625
vt 0.328125 0.890625
vt 0.328125 0.859375
vt 0.5625 0.859375
f 161/161 162/162 163/163 164/164
v 0.7910533906 0.00625 0.1205582618
v 0.8794417382 0.00625 0.2089466094
v 0.2165291309 0.00625 0.8718592168
v 0.1281407832 0.00625 0.7834708691
vt 0.328125 0.828125
vt 0.328125 0.859375
vt 0.5625 0.859375
vt 0.5625 0.828125
f 165/165 166/166 167/167 168/168
o editor_de2abdc5-5412-4cbb-3619-bec1b043c3c0
v 0.2165291201 0.13125 0.1205582725
v 0.8794417275 0.13125 0.7834708799
v 0.8794417275 0.00625 0.7834708799
v 0.2165291201 0.00625 0.1205582725
vt 0.5625 0.828125
vt 0.328125 0.828125
vt 0.328125 0.796875
vt 0.5625 0.796875
f 169/169 170/170 171/171 172/172
v 0.8794417275 0.13125 0.7834708799
v 0.7910533799 0.13125 0.8718592275
v 0.7910533799 0.00625 0.8718592275
v 0.8794417275 0.00625 0.7834708799
vt 0.15625 0.5625
vt 0.125 0.5625
vt 0.125 0.53125
vt 0.15625 0.53125
f 173/173 174/174 175/175 176/176
v 0.7910533799 0.00625 0.8718592275
v 0.7910533799 0.13125 0.8718592275
v 0.1281407725 0.13125 0.2089466201
v 0.1281407725 0.00625 0.2089466201
vt 0.5625 0.765625
vt 0.5625 0.796875
vt 0.328125 0.796875
vt 0.328125 0.765625
f 177/177 178/178 179/179 180/180
v 0.1281407725 0.00625 0.2089466201
v 0.1281407725 0.13125 0.2089466201
v 0.2165291201 0.13125 0.1205582725
v 0.2165291201 0.00625 0.1205582725
vt 0.125 0.53125
vt 0.125 0.5625
vt 0.15625 0.5625
vt 0.15625 0.53125
f 181/181 182/182 183/183 184/184
v 0.1281407725 0.13125 0.2089466201
v 0.7910533799 0.13125 0.8718592275
v 0.8794417275 0.13125 0.7834708799
v 0.2165291201 0.13125 0.1205582725
vt 0.5625 0.765625
vt 0.328125 0.765625
vt 0.328125 0.734375
vt 0.5625 0.734375
f 185/185 186/186 187/187 188/188
v 0.8794417275 0.00625 0.7834708799
v 0.7910533799 0.00625 0.8718592275
v 0.1281407725 0.00625 0.2089466201
v 0.2165291201 0.00625 0.1205582725
vt 0.328125 0.703125
vt 0.328125 0.734375
vt 0.5625 0.734375
vt 0.5625 0.703125
f 189/189 190/190 191/191 192/192
o editor_8066d153-9b38-bc8a-bd7b-bcb342a00649
v 0.328125 0.3200825215 0.75625
v 0.4607075215 0.1875 0.75625
v 0.328125 0.0549174785 0.75625
v 0.1955424785 0.1875 0.75625
vt 0.515625 0.625
vt 0.46875 0.625
vt 0.46875 0.578125
vt 0.515625 0.578125
f 193/193 194/194 195/195 196/196
v 0.4607075215 0.1875 0.75625
v 0.4607075215 0.1875 0.803125
v 0.328125 0.0549174785 0.803125
v 0.328125 0.0549174785 0.75625
vt 0.375 0.5
vt 0.359375 0.5
vt 0.359375 0.453125
vt 0.375 0.453125
f 197/197 198/198 199/199 200/200
v 0.328125 0.0549174785 0.803125
v 0.4607075215 0.1875 0.803125
v 0.328125 0.3200825215 0.803125
v 0.1955424785 0.1875 0.803125
vt 0.453125 0.484375
vt 0.453125 0.53125
vt 0.40625 0.53125
vt 0.40625 0.484375
f 201/201 202/202 203/203 204/204
v 0.1955424785 0.1875 0.803125
v 0.328125 0.3200825215 0.803125
v 0.328125 0.3200825215 0.75625
v 0.1955424785 0.1875 0.75625
vt 0.390625 0.453125
vt 0.390625 0.5
vt 0.375 0.5
vt 0.375 0.453125
f 205/205 206/206 207/207 208/208
v 0.328125 0.3200825215 0.803125
v 0.4607075215 0.1875 0.803125
v 0.4607075215 0.1875 0.75625
v 0.328125 0.3200825215 0.75625
vt 0.546875 0.703125
vt 0.5 0.703125
vt 0.5 0.6875
vt 0.546875 0.6875
f 209/209 210/210 211/211 212/212
v 0.328125 0.0549174785 0.75625
v 0.328125 0.0549174785 0.803125
v 0.1955424785 0.1875 0.803125
v 0.1955424785 0.1875 0.75625
vt 0.5 0.515625
vt 0.5 0.53125
vt 0.546875 0.53125
vt 0.546875 0.515625
f 213/213 214/214 215/215 216/216
o editor_88e76587-f4bd-af97-2e4c-2e033654e76a
v 0.671875 0.3200825215 0.75625
v 0.8044575215 0.1875 0.75625
v 0.671875 0.0549174785 0.75625
v 0.5392924785 0.1875 0.75625
vt 0.5 0.53125
vt 0.453125 0.53125
vt 0.453125 0.484375
vt 0.5 0.484375
f 217/217 218/218 219/219 220/220
v 0.8044575215 0.1875 0.75625
v 0.8044575215 0.1875 0.803125
v 0.671875 0.0549174785 0.803125
v 0.671875 0.0549174785 0.75625
vt 0.40625 0.5
vt 0.390625 0.5
vt 0.390625 0.453125
vt 0.40625 0.453125
f 221/221 222/222 223/223 224/224
v 0.671875 0.0549174785 0.803125
v 0.8044575215 0.1875 0.803125
v 0.671875 0.3200825215 0.803125
v 0.5392924785 0.1875 0.803125
vt 0.53125 0.953125
vt 0.53125 1
vt 0.484375 1
vt 0.484375 0.953125
f 225/225 226/226 227/227 228/228
v 0.5392924785 0.1875 0.803125
v 0.671875 0.3200825215 0.803125
v 0.671875 0.3200825215 0.75625
v 0.5392924785 0.1875 0.75625
vt 0.515625 0.46875
vt 0.515625 0.515625
vt 0.5 0.515625
vt 0.5 0.46875
f 229/229 230/230 231/231 232/232
v 0.671875 0.3200825215 0.803125
v 0.8044575215 0.1875 0.803125
v 0.8044575215 0.1875 0.75625
v 0.671875 0.3200825215 0.75625
vt 0.046875 0.484375
vt 0 0.484375
vt 0 0.46875
vt 0.046875 0.46875
f 233/233 234/234 235/235 236/236
v 0.671875 0.0549174785 0.75625
v 0.671875 0.0549174785 0.803125
v 0.5392924785 0.1875 0.803125
v 0.5392924785 0.1875 0.75625
vt 0.046875 0.46875
vt 0.046875 0.484375
vt 0.09375 0.484375
vt 0.09375 0.46875
f 237/237 238/238 239/239 240/240
o editor_81bf72bf-fe34-45ba-59b4-1c8a47701743
v 0.40625 0.0812941125 0.1846073094
v 0.59375 0.0812941125 0.1846073094
v 0.59375 0.0061176626 -0.0538219283
v 0.40625 0.0061176626 -0.0538219283
vt 0.046875 0.5625
vt 0 0.5625
vt 0 0.5
vt 0.046875 0.5
f 241/241 242/242 243/243 244/244
v 0.59375 0.0061176626 -0.0538219283
v 0.59375 0.0812941125 0.1846073094
v 0.40625 0.0812941125 0.1846073094
v 0.40625 0.0061176626 -0.0538219283
vt 0 0.5
vt 0 0.5625
vt 0.046875 0.5625
vt 0.046875 0.5
f 245/245 246/246 247/247 248/248
