# Converted deterministically from the supplied Blockbench P4 model.
mtllib infiltration_tank.mtl
o infiltration_tank
usemtl tank
v 0 1 0
v 1 1 0
v 1 0 0
v 0 0 0
vt 0.390625 0.75
vt 0.265625 0.75
vt 0.265625 0.625
vt 0.390625 0.625
f 1/1 2/2 3/3 4/4
v 1 0 0
v 1 1 0
v 0 1 0
v 0 0 0
vt 0.257813 0.5
vt 0.257813 0.625
vt 0.132813 0.625
vt 0.132813 0.5
f 5/5 6/6 7/7 8/8
v 0 1 1
v 1 1 1
v 1 0 1
v 0 0 1
vt 0.382813 0.625
vt 0.257813 0.625
vt 0.257813 0.5
vt 0.382813 0.5
f 9/9 10/10 11/11 12/12
v 1 0 1
v 1 1 1
v 0 1 1
v 0 0 1
vt 0.507813 0.5
vt 0.507813 0.625
vt 0.382813 0.625
vt 0.382813 0.5
f 13/13 14/14 15/15 16/16
v 0 1 0
v 0 1 1
v 0 0 1
v 0 0 0
vt 0.125 0.609375
vt 0 0.609375
vt 0 0.484375
vt 0.125 0.484375
f 17/17 18/18 19/19 20/20
v 0 0 1
v 0 1 1
v 0 1 0
v 0 0 0
vt 0.515625 0.625
vt 0.515625 0.75
vt 0.390625 0.75
vt 0.390625 0.625
f 21/21 22/22 23/23 24/24
v 1 1 0
v 1 1 1
v 1 0 1
v 1 0 0
vt 0.523438 1
vt 0.398438 1
vt 0.398438 0.875
vt 0.523438 0.875
f 25/25 26/26 27/27 28/28
v 1 0 1
v 1 1 1
v 1 1 0
v 1 0 0
vt 0.523438 0.75
vt 0.523438 0.875
vt 0.398438 0.875
vt 0.398438 0.75
f 29/29 30/30 31/31 32/32
v 0 1 1
v 1 1 1
v 1 1 0
v 0 1 0
vt 0.25 0.5
vt 0.125 0.5
vt 0.125 0.375
vt 0.25 0.375
f 33/33 34/34 35/35 36/36
v 1 1 0
v 1 1 1
v 0 1 1
v 0 1 0
vt 0.25 0.375
vt 0.25 0.5
vt 0.375 0.5
vt 0.375 0.375
f 37/37 38/38 39/39 40/40
v 0 0.001 1
v 1 0.001 1
v 1 0.001 0
v 0 0.001 0
vt 0.5 0.5
vt 0.375 0.5
vt 0.375 0.375
vt 0.5 0.375
f 41/41 42/42 43/43 44/44
v 1 0.001 0
v 1 0.001 1
v 0 0.001 1
v 0 0.001 0
vt 0.5 0.375
vt 0.5 0.5
vt 0.625 0.5
vt 0.625 0.375
f 45/45 46/46 47/47 48/48
v 0 0.25 1
v 1 0.25 1
v 1 0.25 0
v 0 0.25 0
vt 0.632813 0.625
vt 0.507813 0.625
vt 0.507813 0.5
vt 0.632813 0.5
f 49/49 50/50 51/51 52/52
v 1 0.25 0
v 1 0.25 1
v 0 0.25 1
v 0 0.25 0
vt 0 0.359375
vt 0 0.484375
vt 0.125 0.484375
vt 0.125 0.359375
f 53/53 54/54 55/55 56/56
v 0.765625 0.140625 -0.015625
v 0.890625 0.140625 -0.015625
v 0.890625 0.015625 -0.015625
v 0.765625 0.015625 -0.015625
vt 0.53125 0.6875
vt 0.515625 0.6875
vt 0.515625 0.671875
vt 0.53125 0.671875
f 57/57 58/58 59/59 60/60
v 0.890625 0.140625 -0.015625
v 0.890625 0.140625 1.015625
v 0.890625 0.015625 1.015625
v 0.890625 0.015625 -0.015625
vt 0.648438 0.75
vt 0.515625 0.75
vt 0.515625 0.734375
vt 0.648438 0.734375
f 61/61 62/62 63/63 64/64
v 0.890625 0.015625 1.015625
v 0.890625 0.140625 1.015625
v 0.765625 0.140625 1.015625
v 0.765625 0.015625 1.015625
vt 0.53125 0.65625
vt 0.53125 0.671875
vt 0.515625 0.671875
vt 0.515625 0.65625
f 65/65 66/66 67/67 68/68
v 0.765625 0.015625 1.015625
v 0.765625 0.140625 1.015625
v 0.765625 0.140625 -0.015625
v 0.765625 0.015625 -0.015625
vt 0.648438 0.71875
vt 0.648438 0.734375
vt 0.515625 0.734375
vt 0.515625 0.71875
f 69/69 70/70 71/71 72/72
v 0.765625 0.140625 1.015625
v 0.890625 0.140625 1.015625
v 0.890625 0.140625 -0.015625
v 0.765625 0.140625 -0.015625
vt 0.539063 1
vt 0.523438 1
vt 0.523438 0.867188
vt 0.539063 0.867188
f 73/73 74/74 75/75 76/76
v 0.890625 0.015625 -0.015625
v 0.890625 0.015625 1.015625
v 0.765625 0.015625 1.015625
v 0.765625 0.015625 -0.015625
vt 0.539063 0.867188
vt 0.539063 1
vt 0.554688 1
vt 0.554688 0.867188
f 77/77 78/78 79/79 80/80
v 0.109375 0.140625 -0.015625
v 0.234375 0.140625 -0.015625
v 0.234375 0.015625 -0.015625
v 0.109375 0.015625 -0.015625
vt 0.53125 0.65625
vt 0.515625 0.65625
vt 0.515625 0.640625
vt 0.53125 0.640625
f 81/81 82/82 83/83 84/84
v 0.234375 0.140625 -0.015625
v 0.234375 0.140625 1.015625
v 0.234375 0.015625 1.015625
v 0.234375 0.015625 -0.015625
vt 0.648438 0.71875
vt 0.515625 0.71875
vt 0.515625 0.703125
vt 0.648438 0.703125
f 85/85 86/86 87/87 88/88
v 0.234375 0.015625 1.015625
v 0.234375 0.140625 1.015625
v 0.109375 0.140625 1.015625
v 0.109375 0.015625 1.015625
vt 0.53125 0.625
vt 0.53125 0.640625
vt 0.515625 0.640625
vt 0.515625 0.625
f 89/89 90/90 91/91 92/92
v 0.109375 0.015625 1.015625
v 0.109375 0.140625 1.015625
v 0.109375 0.140625 -0.015625
v 0.109375 0.015625 -0.015625
vt 0.648438 0.6875
vt 0.648438 0.703125
vt 0.515625 0.703125
vt 0.515625 0.6875
f 93/93 94/94 95/95 96/96
v 0.109375 0.140625 1.015625
v 0.234375 0.140625 1.015625
v 0.234375 0.140625 -0.015625
v 0.109375 0.140625 -0.015625
vt 0.570313 1
vt 0.554688 1
vt 0.554688 0.867188
vt 0.570313 0.867188
f 97/97 98/98 99/99 100/100
v 0.234375 0.015625 -0.015625
v 0.234375 0.015625 1.015625
v 0.109375 0.015625 1.015625
v 0.109375 0.015625 -0.015625
vt 0.570313 0.867188
vt 0.570313 1
vt 0.585938 1
vt 0.585938 0.867188
f 101/101 102/102 103/103 104/104
v -0.015625 1.015625 -0.015625
v 1.015625 1.015625 -0.015625
v 1.015625 0 -0.015625
v -0.015625 0 -0.015625
vt 0.265625 1
vt 0.132813 1
vt 0.132813 0.875
vt 0.265625 0.875
f 105/105 106/106 107/107 108/108
v 1.015625 0 -0.015625
v 1.015625 1.015625 -0.015625
v -0.015625 1.015625 -0.015625
v -0.015625 0 -0.015625
vt 0.265625 0.75
vt 0.265625 0.875
vt 0.132813 0.875
vt 0.132813 0.75
f 109/109 110/110 111/111 112/112
v 1.015625 1.015625 -0.015625
v 1.015625 1.015625 1.015625
v 1.015625 0 1.015625
v 1.015625 0 -0.015625
vt 0.265625 0.75
vt 0.132813 0.75
vt 0.132813 0.625
vt 0.265625 0.625
f 113/113 114/114 115/115 116/116
v 1.015625 0 1.015625
v 1.015625 1.015625 1.015625
v 1.015625 1.015625 -0.015625
v 1.015625 0 -0.015625
vt 0.132813 0.609375
vt 0.132813 0.734375
vt 0 0.734375
vt 0 0.609375
f 117/117 118/118 119/119 120/120
v -0.015563 1.015625 -0.015625
v -0.015562 1.015625 1.015625
v -0.015562 0 1.015625
v -0.015563 0 -0.015625
vt 0.398438 1
vt 0.265625 1
vt 0.265625 0.875
vt 0.398438 0.875
f 121/121 122/122 123/123 124/124
v -0.015562 0 1.015625
v -0.015562 1.015625 1.015625
v -0.015563 1.015625 -0.015625
v -0.015563 0 -0.015625
vt 0.398438 0.75
vt 0.398438 0.875
vt 0.265625 0.875
vt 0.265625 0.75
f 125/125 126/126 127/127 128/128
v 1.01725 1.017188 -0.015688
v 1.01725 1.017188 1.015563
v -0.014 1.017188 1.015563
v -0.014 1.017188 -0.015688
vt 0.132813 1
vt 0 1
vt 0 0.867188
vt 0.132813 0.867188
f 129/129 130/130 131/131 132/132
v -0.014 1.017188 1.015563
v 1.01725 1.017188 1.015563
v 1.01725 1.017188 -0.015688
v -0.014 1.017188 -0.015688
vt 0.132813 0.734375
vt 0.132813 0.867188
vt 0 0.867188
vt 0 0.734375
f 133/133 134/134 135/135 136/136
