# Converted from advanced_breeding_box.bbmodel using RuntimeBlockbenchModel transforms.
mtllib advanced_breeding_box.mtl
o advanced_breeding_box
usemtl box
s off
v 0.00000000 1.00000000 0.00000000
v 1.00000000 1.00000000 0.00000000
v 1.00000000 0.00000000 0.00000000
v 0.00000000 0.00000000 0.00000000
vt 0.25000000 0.00000000
vt 0.00000000 0.00000000
vt 0.00000000 0.25000000
vt 0.25000000 0.25000000
f 1/1 2/2 3/3 4/4
v 1.00000000 1.00000000 0.00000000
v 1.00000000 1.00000000 1.00000000
v 1.00000000 0.00000000 1.00000000
v 1.00000000 0.00000000 0.00000000
vt 0.25000000 0.25000000
vt 0.00000000 0.25000000
vt 0.00000000 0.50000000
vt 0.25000000 0.50000000
f 5/5 6/6 7/7 8/8
v 1.00000000 0.00000000 1.00000000
v 1.00000000 1.00000000 1.00000000
v 0.00000000 1.00000000 1.00000000
v 0.00000000 0.00000000 1.00000000
vt 0.50000000 0.25000000
vt 0.50000000 0.00000000
vt 0.25000000 0.00000000
vt 0.25000000 0.25000000
f 9/9 10/10 11/11 12/12
v 0.00000000 0.00000000 1.00000000
v 0.00000000 1.00000000 1.00000000
v 0.00000000 1.00000000 0.00000000
v 0.00000000 0.00000000 0.00000000
vt 0.50000000 0.50000000
vt 0.50000000 0.25000000
vt 0.25000000 0.25000000
vt 0.25000000 0.50000000
f 13/13 14/14 15/15 16/16
v 0.00000000 1.00000000 1.00000000
v 1.00000000 1.00000000 1.00000000
v 1.00000000 1.00000000 0.00000000
v 0.00000000 1.00000000 0.00000000
vt 0.25000000 0.50000000
vt 0.00000000 0.50000000
vt 0.00000000 0.75000000
vt 0.25000000 0.75000000
f 17/17 18/18 19/19 20/20
v 1.00000000 0.00000000 0.00000000
v 1.00000000 0.00000000 1.00000000
v 0.00000000 0.00000000 1.00000000
v 0.00000000 0.00000000 0.00000000
vt 0.50000000 0.25000000
vt 0.50000000 0.00000000
vt 0.75000000 0.00000000
vt 0.75000000 0.25000000
f 21/21 22/22 23/23 24/24
v 0.06250000 1.25000000 0.00000000
v 0.93750000 1.25000000 0.00000000
v 0.93750000 1.00000000 0.00000000
v 0.06250000 1.00000000 0.00000000
vt 0.65625000 0.50000000
vt 0.43750000 0.50000000
vt 0.43750000 0.56250000
vt 0.65625000 0.56250000
f 25/25 26/26 27/27 28/28
v 0.93750000 1.25000000 0.00000000
v 0.93750000 1.25000000 0.00000000
v 0.93750000 1.00000000 0.00000000
v 0.93750000 1.00000000 0.00000000
vt 0.00000000 0.00000000
vt 0.00000000 0.00000000
vt 0.00000000 0.06250000
vt 0.00000000 0.06250000
f 29/29 30/30 31/31 32/32
v 0.93750000 1.00000000 0.00000000
v 0.93750000 1.25000000 0.00000000
v 0.06250000 1.25000000 0.00000000
v 0.06250000 1.00000000 0.00000000
vt 0.71875000 0.50000000
vt 0.71875000 0.43750000
vt 0.50000000 0.43750000
vt 0.50000000 0.50000000
f 33/33 34/34 35/35 36/36
v 0.06250000 1.00000000 0.00000000
v 0.06250000 1.25000000 0.00000000
v 0.06250000 1.25000000 0.00000000
v 0.06250000 1.00000000 0.00000000
vt 0.00000000 0.06250000
vt 0.00000000 0.00000000
vt 0.00000000 0.00000000
vt 0.00000000 0.06250000
f 37/37 38/38 39/39 40/40
v 0.06250000 1.25000000 0.00000000
v 0.93750000 1.25000000 0.00000000
v 0.93750000 1.25000000 0.00000000
v 0.06250000 1.25000000 0.00000000
vt 0.21875000 0.00000000
vt 0.00000000 0.00000000
vt 0.00000000 0.00000000
vt 0.21875000 0.00000000
f 41/41 42/42 43/43 44/44
v 0.93750000 1.00000000 0.00000000
v 0.93750000 1.00000000 0.00000000
v 0.06250000 1.00000000 0.00000000
v 0.06250000 1.00000000 0.00000000
vt 0.21875000 0.00000000
vt 0.21875000 0.00000000
vt 0.00000000 0.00000000
vt 0.00000000 0.00000000
f 45/45 46/46 47/47 48/48
v -0.00006250 0.57475953 -0.01225953
v -0.00006250 0.57475953 -0.01225953
v -0.00006250 -0.07475953 0.36274047
v -0.00006250 -0.07475953 0.36274047
vt 0.00000000 0.00000000
vt 0.00000000 0.00000000
vt 0.00000000 0.18750000
vt 0.00000000 0.18750000
f 49/49 50/50 51/51 52/52
v -0.00006250 0.57475953 -0.01225953
v -0.00006250 0.94975953 0.63725953
v -0.00006250 0.30024047 1.01225953
v -0.00006250 -0.07475953 0.36274047
vt 0.43750000 0.50000000
vt 0.25000000 0.50000000
vt 0.25000000 0.68750000
vt 0.43750000 0.68750000
f 53/53 54/54 55/55 56/56
v -0.00006250 0.30024047 1.01225953
v -0.00006250 0.94975953 0.63725953
v -0.00006250 0.94975953 0.63725953
v -0.00006250 0.30024047 1.01225953
vt 0.00000000 0.18750000
vt 0.00000000 0.00000000
vt 0.00000000 0.00000000
vt 0.00000000 0.18750000
f 57/57 58/58 59/59 60/60
v -0.00006250 0.30024047 1.01225953
v -0.00006250 0.94975953 0.63725953
v -0.00006250 0.57475953 -0.01225953
v -0.00006250 -0.07475953 0.36274047
vt 0.68750000 0.43750000
vt 0.68750000 0.25000000
vt 0.50000000 0.25000000
vt 0.50000000 0.43750000
f 61/61 62/62 63/63 64/64
v -0.00006250 0.94975953 0.63725953
v -0.00006250 0.94975953 0.63725953
v -0.00006250 0.57475953 -0.01225953
v -0.00006250 0.57475953 -0.01225953
vt 0.00000000 0.18750000
vt 0.00000000 0.18750000
vt 0.00000000 0.00000000
vt 0.00000000 0.00000000
f 65/65 66/66 67/67 68/68
v -0.00006250 -0.07475953 0.36274047
v -0.00006250 0.30024047 1.01225953
v -0.00006250 0.30024047 1.01225953
v -0.00006250 -0.07475953 0.36274047
vt 0.00000000 0.18750000
vt 0.00000000 0.00000000
vt 0.00000000 0.00000000
vt 0.00000000 0.18750000
f 69/69 70/70 71/71 72/72
v 1.00606250 0.57475953 1.01225953
v 1.00606250 0.57475953 1.01225953
v 1.00606250 -0.07475953 0.63725953
v 1.00606250 -0.07475953 0.63725953
vt 0.00000000 0.00000000
vt 0.00000000 0.00000000
vt 0.00000000 0.18750000
vt 0.00000000 0.18750000
f 73/73 74/74 75/75 76/76
v 1.00606250 0.57475953 1.01225953
v 1.00606250 0.94975953 0.36274047
v 1.00606250 0.30024047 -0.01225953
v 1.00606250 -0.07475953 0.63725953
vt 0.43750000 0.50000000
vt 0.25000000 0.50000000
vt 0.25000000 0.68750000
vt 0.43750000 0.68750000
f 77/77 78/78 79/79 80/80
v 1.00606250 0.30024047 -0.01225953
v 1.00606250 0.94975953 0.36274047
v 1.00606250 0.94975953 0.36274047
v 1.00606250 0.30024047 -0.01225953
vt 0.00000000 0.18750000
vt 0.00000000 0.00000000
vt 0.00000000 0.00000000
vt 0.00000000 0.18750000
f 81/81 82/82 83/83 84/84
v 1.00606250 0.30024047 -0.01225953
v 1.00606250 0.94975953 0.36274047
v 1.00606250 0.57475953 1.01225953
v 1.00606250 -0.07475953 0.63725953
vt 0.68750000 0.43750000
vt 0.68750000 0.25000000
vt 0.50000000 0.25000000
vt 0.50000000 0.43750000
f 85/85 86/86 87/87 88/88
v 1.00606250 0.94975953 0.36274047
v 1.00606250 0.94975953 0.36274047
v 1.00606250 0.57475953 1.01225953
v 1.00606250 0.57475953 1.01225953
vt 0.00000000 0.18750000
vt 0.00000000 0.18750000
vt 0.00000000 0.00000000
vt 0.00000000 0.00000000
f 89/89 90/90 91/91 92/92
v 1.00606250 -0.07475953 0.63725953
v 1.00606250 0.30024047 -0.01225953
v 1.00606250 0.30024047 -0.01225953
v 1.00606250 -0.07475953 0.63725953
vt 0.00000000 0.18750000
vt 0.00000000 0.00000000
vt 0.00000000 0.00000000
vt 0.00000000 0.18750000
f 93/93 94/94 95/95 96/96
v 0.34375000 0.43750000 1.00006250
v 0.65625000 0.43750000 1.00006250
v 0.65625000 0.00000000 1.00006250
v 0.34375000 0.00000000 1.00006250
vt 0.51562500 0.57812500
vt 0.43750000 0.57812500
vt 0.43750000 0.68750000
vt 0.51562500 0.68750000
f 97/97 98/98 99/99 100/100
v 0.65625000 0.43750000 1.00006250
v 0.65625000 0.43750000 1.00006250
v 0.65625000 0.00000000 1.00006250
v 0.65625000 0.00000000 1.00006250
vt 0.03125000 0.01562500
vt 0.03125000 0.01562500
vt 0.03125000 0.12500000
vt 0.03125000 0.12500000
f 101/101 102/102 103/103 104/104
v 0.65625000 0.00000000 1.00006250
v 0.65625000 0.43750000 1.00006250
v 0.34375000 0.43750000 1.00006250
v 0.34375000 0.00000000 1.00006250
vt 0.51562500 0.68750000
vt 0.51562500 0.57812500
vt 0.43750000 0.57812500
vt 0.43750000 0.68750000
f 105/105 106/106 107/107 108/108
v 0.34375000 0.00000000 1.00006250
v 0.34375000 0.43750000 1.00006250
v 0.34375000 0.43750000 1.00006250
v 0.34375000 0.00000000 1.00006250
vt 0.00000000 0.12500000
vt 0.00000000 0.01562500
vt 0.00000000 0.01562500
vt 0.00000000 0.12500000
f 109/109 110/110 111/111 112/112
v 0.34375000 0.43750000 1.00006250
v 0.65625000 0.43750000 1.00006250
v 0.65625000 0.43750000 1.00006250
v 0.34375000 0.43750000 1.00006250
vt 0.00000000 0.00000000
vt 0.07812500 0.00000000
vt 0.07812500 0.00000000
vt 0.00000000 0.00000000
f 113/113 114/114 115/115 116/116
v 0.65625000 0.00000000 1.00006250
v 0.65625000 0.00000000 1.00006250
v 0.34375000 0.00000000 1.00006250
v 0.34375000 0.00000000 1.00006250
vt 0.07812500 0.03125000
vt 0.07812500 0.03125000
vt 0.00000000 0.03125000
vt 0.00000000 0.03125000
f 117/117 118/118 119/119 120/120
v -0.00625000 1.00625000 0.12500000
v 1.00625000 1.00625000 0.12500000
v 1.00625000 0.00000000 0.12500000
v -0.00625000 0.00000000 0.12500000
vt 1.00000000 0.34531250
vt 0.74687500 0.34531250
vt 0.74687500 0.59687500
vt 1.00000000 0.59687500
f 121/121 122/122 123/123 124/124
v 1.00625000 1.00625000 0.12500000
v 1.00625000 1.00625000 0.87500000
v 1.00625000 0.00000000 0.87500000
v 1.00625000 0.00000000 0.12500000
vt 0.43750000 0.68906250
vt 0.25000000 0.68906250
vt 0.25000000 0.94062500
vt 0.43750000 0.94062500
f 125/125 126/126 127/127 128/128
v 1.00625000 0.00000000 0.87500000
v 1.00625000 1.00625000 0.87500000
v -0.00625000 1.00625000 0.87500000
v -0.00625000 0.00000000 0.87500000
vt 0.99843750 0.59531250
vt 0.99843750 0.34375000
vt 0.74531250 0.34375000
vt 0.74531250 0.59531250
f 129/129 130/130 131/131 132/132
v -0.00625000 0.00000000 0.87500000
v -0.00625000 1.00625000 0.87500000
v -0.00625000 1.00625000 0.12500000
v -0.00625000 0.00000000 0.12500000
vt 0.43750000 0.94062500
vt 0.43750000 0.68906250
vt 0.25000000 0.68906250
vt 0.25000000 0.94062500
f 133/133 134/134 135/135 136/136
v -0.00625000 1.00625000 0.87500000
v 1.00625000 1.00625000 0.87500000
v 1.00625000 1.00625000 0.12500000
v -0.00625000 1.00625000 0.12500000
vt 0.00000000 0.93750000
vt 0.25312500 0.93750000
vt 0.25312500 0.75000000
vt 0.00000000 0.75000000
f 137/137 138/138 139/139 140/140
v 1.00625000 0.00000000 0.12500000
v 1.00625000 0.00000000 0.87500000
v -0.00625000 0.00000000 0.87500000
v -0.00625000 0.00000000 0.12500000
vt 0.87656250 0.84375000
vt 0.87656250 0.67187500
vt 0.62343750 0.67187500
vt 0.62343750 0.84375000
f 141/141 142/142 143/143 144/144
